<svg width="24" height="24" viewBox="0 0 24 24" fill="none" xmlns="http://www.w3.org/2000/svg">
<g clip-path="url(#clip0_7727_33973)">
<mask id="path-1-inside-1_7727_33973" fill="white">
<path fill-rule="evenodd" clip-rule="evenodd" d="M10.7721 3.4213L3.77212 8.86574C3.28494 9.24465 3 9.82726 3 10.4444V17.4663C3 18.4663 3.6 20.4663 6 20.4663H10V13.4663C10 12.914 10.4477 12.4663 11 12.4663H13C13.5523 12.4663 14 12.914 14 13.4663V20.4663H18C19 20.4663 21 19.8663 21 17.4663V10.4437C21 9.82648 20.7151 9.24465 20.2279 8.86574L13.2279 3.42129C12.5057 2.85957 11.4943 2.85957 10.7721 3.4213Z"/>
</mask>
<path fill-rule="evenodd" clip-rule="evenodd" d="M10.7721 3.4213L3.77212 8.86574C3.28494 9.24465 3 9.82726 3 10.4444V17.4663C3 18.4663 3.6 20.4663 6 20.4663H10V13.4663C10 12.914 10.4477 12.4663 11 12.4663H13C13.5523 12.4663 14 12.914 14 13.4663V20.4663H18C19 20.4663 21 19.8663 21 17.4663V10.4437C21 9.82648 20.7151 9.24465 20.2279 8.86574L13.2279 3.42129C12.5057 2.85957 11.4943 2.85957 10.7721 3.4213Z" fill="#5F5CE8"/>
<path d="M3.77212 8.86574L4.69303 10.0498L4.69303 10.0498L3.77212 8.86574ZM10.7721 3.4213L9.85121 2.23727L9.85121 2.23727L10.7721 3.4213ZM10 20.4663V21.9663H11.5V20.4663H10ZM14 20.4663H12.5V21.9663H14V20.4663ZM20.2279 8.86574L21.1488 7.68171L20.2279 8.86574ZM13.2279 3.42129L12.307 4.60532L12.307 4.60532L13.2279 3.42129ZM4.69303 10.0498L11.693 4.60532L9.85121 2.23727L2.85121 7.68171L4.69303 10.0498ZM4.5 10.4444C4.5 10.2901 4.57124 10.1445 4.69303 10.0498L2.85121 7.68171C1.99865 8.34481 1.5 9.36438 1.5 10.4444H4.5ZM4.5 17.4663V10.4444H1.5V17.4663H4.5ZM6 18.9663C5.28888 18.9663 4.98921 18.7036 4.8173 18.4648C4.59033 18.1496 4.5 17.7262 4.5 17.4663H1.5C1.5 18.2063 1.70967 19.283 2.3827 20.2177C3.11079 21.229 4.31112 21.9663 6 21.9663V18.9663ZM10 18.9663H6V21.9663H10V18.9663ZM11.5 20.4663V13.4663H8.5V20.4663H11.5ZM11.5 13.4663C11.5 13.7425 11.2761 13.9663 11 13.9663V10.9663C9.61929 10.9663 8.5 12.0856 8.5 13.4663H11.5ZM11 13.9663H13V10.9663H11V13.9663ZM13 13.9663C12.7239 13.9663 12.5 13.7425 12.5 13.4663H15.5C15.5 12.0856 14.3807 10.9663 13 10.9663V13.9663ZM12.5 13.4663V20.4663H15.5V13.4663H12.5ZM18 18.9663H14V21.9663H18V18.9663ZM19.5 17.4663C19.5 18.1774 19.2373 18.4771 18.9985 18.649C18.6833 18.8759 18.26 18.9663 18 18.9663V21.9663C18.74 21.9663 19.8167 21.7566 20.7515 21.0836C21.7627 20.3555 22.5 19.1552 22.5 17.4663H19.5ZM19.5 10.4437V17.4663H22.5V10.4437H19.5ZM19.307 10.0498C19.4293 10.1449 19.5 10.29 19.5 10.4437H22.5C22.5 9.36296 22.0008 8.34442 21.1488 7.68171L19.307 10.0498ZM12.307 4.60532L19.307 10.0498L21.1488 7.68171L14.1488 2.23727L12.307 4.60532ZM11.693 4.60532C11.8736 4.46489 12.1264 4.46489 12.307 4.60532L14.1488 2.23727C12.8849 1.25424 11.1151 1.25425 9.85121 2.23727L11.693 4.60532Z" fill="#5F5CE8" mask="url(#path-1-inside-1_7727_33973)"/>
</g>
<defs>
<clipPath id="clip0_7727_33973">
<rect width="24" height="24" fill="white"/>
</clipPath>
</defs>
</svg>
