<svg width="24" height="24" viewBox="0 0 24 24" fill="none" xmlns="http://www.w3.org/2000/svg">
<g clip-path="url(#clip0_5790_8236)">
<path d="M15.2415 6.25C14.2963 6.25 13.5777 6.67062 13.0496 7.21071C12.5584 7.71316 12.2146 8.33493 11.9636 8.85535C11.6765 8.33191 11.2929 7.7119 10.7849 7.21205C10.2502 6.68588 9.53179 6.25 8.61361 6.25C6.92245 6.25 5.86337 7.26028 5.3682 8.49238C4.89075 9.68039 4.90587 11.1165 5.29028 12.2423C5.65864 13.3212 6.68048 14.4783 7.73191 15.478C8.81469 16.5074 10.0511 17.481 10.9953 18.189C11.5814 18.6286 12.3849 18.6537 12.9966 18.238C13.9966 17.5586 15.1788 16.6778 16.2255 15.6754C17.2626 14.6822 18.2196 13.52 18.7002 12.2689C19.2543 10.8264 19.258 9.34464 18.653 8.18297C18.0303 6.98741 16.8221 6.25 15.2415 6.25Z" stroke="#C3C9D0" stroke-width="1.5" stroke-linejoin="round"/>
</g>
<defs>
<clipPath id="clip0_5790_8236">
<rect width="24" height="24" fill="white"/>
</clipPath>
</defs>
</svg>
