<svg width="24" height="24" viewBox="0 0 24 24" fill="none" xmlns="http://www.w3.org/2000/svg">
<g clip-path="url(#clip0_5415_13604)">
<rect x="3.05" y="3.05" width="17.9" height="17.9" rx="0.95" stroke="white" stroke-opacity="0.5" stroke-width="0.1"/>
<rect x="2.05" y="4.05" width="19.9" height="15.9" rx="0.95" stroke="white" stroke-opacity="0.5" stroke-width="0.1"/>
<rect x="4.05" y="2.05" width="15.9" height="19.9" rx="0.95" stroke="white" stroke-opacity="0.5" stroke-width="0.1"/>
<circle cx="12" cy="12" r="9.95" stroke="white" stroke-opacity="0.5" stroke-width="0.1"/>
<circle cx="12" cy="12" r="4.95" stroke="white" stroke-opacity="0.5" stroke-width="0.1"/>
<path d="M0.05 0.05H8H12H16H23.95V8V12V16V23.95H16H12H8H0.05V16V12V8V0.05Z" stroke="white" stroke-opacity="0.5" stroke-width="0.1"/>
<path d="M12 4L2 8.5L12 13L22 8.5L12 4Z" stroke="#8490A0" stroke-width="1.5" stroke-linejoin="round"/>
<path d="M12 20.5L5 17.5V12L12 15.5L19 12V17.5L12 20.5Z" stroke="#8490A0" stroke-width="1.5" stroke-linejoin="round"/>
<path d="M22 8.5V15" stroke="#8490A0" stroke-width="1.5" stroke-linecap="round" stroke-linejoin="round"/>
</g>
<defs>
<clipPath id="clip0_5415_13604">
<rect width="24" height="24" fill="white"/>
</clipPath>
</defs>
</svg>
