<svg width="30" height="30" viewBox="0 0 30 30" fill="none" xmlns="http://www.w3.org/2000/svg">
<path fill-rule="evenodd" clip-rule="evenodd" d="M17.4454 7.55932L20.38 4.33805C20.7519 3.92978 21.3977 3.88503 21.8224 4.23811L24.8056 6.7183C25.2303 7.07138 25.2731 7.68857 24.9012 8.09684L22.9514 10.2371L18.4303 6.47837L17.4455 7.55936L17.4454 7.55932ZM17.4455 7.55936L5.54033 20.6276C5.39392 20.7883 5.30598 20.9899 5.28983 21.2019L5.0014 24.988C4.97673 25.3118 5.28284 25.5663 5.61516 25.4983L9.50059 24.7027C9.71816 24.6581 9.91507 24.5471 10.0615 24.3864L22.9514 10.2372L22.9514 10.2371L21.9666 11.3181L17.4455 7.55936Z" fill="white"/>
<path d="M15 25L25 25" stroke="white" stroke-width="2" stroke-linecap="round"/>
</svg>
